<svg width="181" height="181" viewBox="0 0 181 181" fill="none" xmlns="http://www.w3.org/2000/svg">
<rect x="54.65" y="51.65" width="34.7" height="70.7" stroke="#E9D1AD" stroke-width="1.3"/>
<rect x="88.65" y="68.65" width="30.7" height="53.7" stroke="#E9D1AD" stroke-width="1.3"/>
<rect x="58.35" y="56.35" width="7.3" height="7.3" stroke="#E9D1AD" stroke-width="0.7"/>
<rect x="58.35" y="78.35" width="7.3" height="7.3" stroke="#E9D1AD" stroke-width="0.7"/>
<rect x="58.35" y="67.35" width="7.3" height="7.3" stroke="#E9D1AD" stroke-width="0.7"/>
<rect x="58.35" y="89.35" width="7.3" height="7.3" stroke="#E9D1AD" stroke-width="0.7"/>
<rect x="68.35" y="56.35" width="7.3" height="7.3" stroke="#E9D1AD" stroke-width="0.7"/>
<rect x="68.35" y="78.35" width="7.3" height="7.3" stroke="#E9D1AD" stroke-width="0.7"/>
<rect x="68.35" y="67.35" width="7.3" height="7.3" stroke="#E9D1AD" stroke-width="0.7"/>
<rect x="68.35" y="89.35" width="7.3" height="7.3" stroke="#E9D1AD" stroke-width="0.7"/>
<rect x="77.35" y="56.35" width="7.3" height="7.3" stroke="#E9D1AD" stroke-width="0.7"/>
<rect x="94.35" y="75.35" width="7.3" height="7.3" stroke="#E9D1AD" stroke-width="0.7"/>
<rect x="94.35" y="86.35" width="7.3" height="7.3" stroke="#E9D1AD" stroke-width="0.7"/>
<rect x="94.35" y="97.35" width="7.3" height="7.3" stroke="#E9D1AD" stroke-width="0.7"/>
<rect x="105.35" y="75.35" width="7.3" height="7.3" stroke="#E9D1AD" stroke-width="0.7"/>
<rect x="105.35" y="86.35" width="7.3" height="7.3" stroke="#E9D1AD" stroke-width="0.7"/>
<rect x="105.35" y="97.35" width="7.3" height="7.3" stroke="#E9D1AD" stroke-width="0.7"/>
<rect x="77.35" y="78.35" width="7.3" height="7.3" stroke="#E9D1AD" stroke-width="0.7"/>
<rect x="77.35" y="67.35" width="7.3" height="7.3" stroke="#E9D1AD" stroke-width="0.7"/>
<rect x="77.35" y="89.35" width="7.3" height="7.3" stroke="#E9D1AD" stroke-width="0.7"/>
<path d="M55 101H89M62.907 122.185V105.889H71.6047M80.3023 123V105.889H71.6047M71.6047 105.889V122.185" stroke="#E9D1AD"/>
<path d="M90 109H119" stroke="#E9D1AD"/>
<rect x="14" y="13" width="146" height="147" rx="73" stroke="white" stroke-width="2" stroke-dasharray="4 4"/>
<g filter="url(#filter0_d_0_1)">
<rect x="5.5" y="4.5" width="164" height="164" rx="82" stroke="#E9D1AD" stroke-width="5" shape-rendering="crispEdges"/>
</g>
<defs>
<filter id="filter0_d_0_1" x="0" y="0" width="181" height="181" filterUnits="userSpaceOnUse" color-interpolation-filters="sRGB">
<feFlood flood-opacity="0" result="BackgroundImageFix"/>
<feColorMatrix in="SourceAlpha" type="matrix" values="0 0 0 0 0 0 0 0 0 0 0 0 0 0 0 0 0 0 127 0" result="hardAlpha"/>
<feOffset dx="3" dy="4"/>
<feGaussianBlur stdDeviation="3"/>
<feComposite in2="hardAlpha" operator="out"/>
<feColorMatrix type="matrix" values="0 0 0 0 0 0 0 0 0 0 0 0 0 0 0 0 0 0 0.71 0"/>
<feBlend mode="normal" in2="BackgroundImageFix" result="effect1_dropShadow_0_1"/>
<feBlend mode="normal" in="SourceGraphic" in2="effect1_dropShadow_0_1" result="shape"/>
</filter>
</defs>
</svg>
