<svg width="181" height="181" viewBox="0 0 181 181" fill="none" xmlns="http://www.w3.org/2000/svg">
<path d="M84.1841 111.597V78.7998C83.8262 77.162 81.4216 75.2198 78.7179 76.0667C75.2065 77.1666 75.0309 80.9605 75.9847 82.8993C76.9933 84.9492 78.4905 84.9492 79.4018 84.9492H97.8504C99.5446 84.6706 101.267 83.4223 101.267 80.8495C101.267 78.2767 99.189 76.0669 96.8115 76.0667C94.0784 76.0665 93.0674 77.4334 92.3841 78.7998V111.597" stroke="#E9D1AD" stroke-width="2"/>
<path d="M71.3867 111.392H104.184M71.3867 118.224H104.184" stroke="#E9D1AD" stroke-width="2"/>
<path d="M105.972 102.16L105.337 101.387L105.303 101.416L105.27 101.447L105.972 102.16ZM69.9363 102.435L70.6671 101.752L70.6166 101.698L70.5587 101.652L69.9363 102.435ZM71.4115 106.72L72.4046 106.837L72.4112 106.781L72.4115 106.724L71.4115 106.72ZM71.3839 107.935L72.3833 107.97L72.3839 107.952V107.935H71.3839ZM71.3824 107.977L70.383 107.942V107.942L71.3824 107.977ZM71.3839 108.317H72.3839V108.289L72.3823 108.261L71.3839 108.317ZM104.181 108.258L103.183 108.207L103.181 108.233V108.258H104.181ZM104.182 107.975L103.183 108.011L103.183 108.011L104.182 107.975ZM104.181 107.951H103.181V107.969L103.182 107.987L104.181 107.951ZM104.15 106.687L103.15 106.695L103.15 106.754L103.158 106.812L104.15 106.687ZM115.482 79.9606C115.482 88.5948 111.532 96.3058 105.337 101.387L106.606 102.933C113.244 97.4885 117.482 89.219 117.482 79.9606H115.482ZM87.7838 52.2627C103.081 52.2627 115.482 64.6635 115.482 79.9606H117.482C117.482 63.5589 104.186 50.2627 87.7838 50.2627V52.2627ZM60.0859 79.9606C60.0859 64.6635 72.4867 52.2627 87.7838 52.2627V50.2627C71.3821 50.2627 58.0859 63.5589 58.0859 79.9606H60.0859ZM70.5587 101.652C64.1754 96.5763 60.0859 88.7463 60.0859 79.9606H58.0859C58.0859 89.3817 62.474 97.7786 69.3139 103.218L70.5587 101.652ZM72.4115 106.724C72.4157 105.655 72.3494 104.772 72.0763 103.962C71.7959 103.131 71.3268 102.459 70.6671 101.752L69.2054 103.117C69.7505 103.701 70.0231 104.133 70.1812 104.601C70.3466 105.092 70.4155 105.707 70.4115 106.716L72.4115 106.724ZM72.3839 107.192C72.3839 107.072 72.391 106.953 72.4046 106.837L70.4183 106.603C70.3956 106.797 70.3839 106.993 70.3839 107.192H72.3839ZM72.3839 107.935V107.192H70.3839V107.935H72.3839ZM72.3817 108.013C72.3823 107.999 72.3828 107.984 72.3833 107.97L70.3845 107.9C70.384 107.914 70.3835 107.928 70.383 107.942L72.3817 108.013ZM72.3823 108.261C72.3789 108.2 72.378 108.118 72.3817 108.013L70.383 107.942C70.3776 108.093 70.3779 108.237 70.3855 108.373L72.3823 108.261ZM72.3839 121.057V108.317H70.3839V121.057H72.3839ZM75.3839 124.057C73.727 124.057 72.3839 122.714 72.3839 121.057H70.3839C70.3839 123.819 72.6225 126.057 75.3839 126.057V124.057ZM100.181 124.057H75.3839V126.057H100.181V124.057ZM103.181 121.057C103.181 122.714 101.838 124.057 100.181 124.057V126.057C102.943 126.057 105.181 123.819 105.181 121.057H103.181ZM103.181 108.258V121.057H105.181V108.258H103.181ZM103.183 108.011C103.186 108.092 103.185 108.157 103.183 108.207L105.18 108.308C105.186 108.19 105.186 108.067 105.182 107.94L103.183 108.011ZM103.182 107.987L103.183 108.011L105.182 107.94L105.181 107.915L103.182 107.987ZM103.181 107.192V107.951H105.181V107.192H103.181ZM103.158 106.812C103.173 106.936 103.181 107.063 103.181 107.192H105.181C105.181 106.979 105.168 106.769 105.142 106.562L103.158 106.812ZM105.27 101.447C104.476 102.229 103.895 102.92 103.551 103.78C103.209 104.633 103.141 105.551 103.15 106.695L105.15 106.68C105.142 105.588 105.217 104.997 105.407 104.523C105.594 104.056 105.933 103.601 106.673 102.873L105.27 101.447Z" fill="#E9D1AD"/>
<path d="M87.8051 133.257C80.6989 133.257 79.3779 127.791 79.6057 125.058H96.0048C96.2325 127.791 94.9112 133.257 87.8051 133.257Z" stroke="#E9D1AD" stroke-width="2"/>
<path d="M119.219 63.5146L123.979 60.8277" stroke="#E9D1AD" stroke-width="2"/>
<path d="M87.793 40.3301L87.793 45.7963" stroke="#E9D1AD" stroke-width="2"/>
<path d="M52.2578 59.4619L56.7823 62.5294" stroke="#E9D1AD" stroke-width="2"/>
<path d="M117.855 99.0928L122.614 101.782" stroke="#E9D1AD" stroke-width="2"/>
<path d="M57.0234 97.7266L52.2647 100.416" stroke="#E9D1AD" stroke-width="2"/>
<path d="M112.387 40.3301L105.554 51.2626" stroke="#E9D1AD" stroke-width="2"/>
<path d="M64.5586 40.3301L71.3914 51.2626" stroke="#E9D1AD" stroke-width="2"/>
<path d="M39.9609 79.9609L52.8531 79.9609" stroke="#E9D1AD" stroke-width="2"/>
<path d="M121.957 79.9609L134.849 79.9609" stroke="#E9D1AD" stroke-width="2"/>
<rect x="14" y="13" width="146" height="147" rx="73" stroke="white" stroke-width="2" stroke-dasharray="4 4"/>
<g filter="url(#filter0_d_0_1)">
<rect x="5.5" y="4.5" width="164" height="164" rx="82" stroke="#E9D1AD" stroke-width="5" shape-rendering="crispEdges"/>
</g>
<defs>
<filter id="filter0_d_0_1" x="0" y="0" width="181" height="181" filterUnits="userSpaceOnUse" color-interpolation-filters="sRGB">
<feFlood flood-opacity="0" result="BackgroundImageFix"/>
<feColorMatrix in="SourceAlpha" type="matrix" values="0 0 0 0 0 0 0 0 0 0 0 0 0 0 0 0 0 0 127 0" result="hardAlpha"/>
<feOffset dx="3" dy="4"/>
<feGaussianBlur stdDeviation="3"/>
<feComposite in2="hardAlpha" operator="out"/>
<feColorMatrix type="matrix" values="0 0 0 0 0 0 0 0 0 0 0 0 0 0 0 0 0 0 0.71 0"/>
<feBlend mode="normal" in2="BackgroundImageFix" result="effect1_dropShadow_0_1"/>
<feBlend mode="normal" in="SourceGraphic" in2="effect1_dropShadow_0_1" result="shape"/>
</filter>
</defs>
</svg>
