<svg width="52" height="44" viewBox="0 0 52 44" fill="none" xmlns="http://www.w3.org/2000/svg">
<rect x="1" y="1" width="49.8064" height="42" stroke="#E9D1AD" stroke-width="2"/>
<path d="M6.3877 1.06445L12.7748 7.09671L6.3877 13.129" stroke="#E9D1AD" stroke-width="2"/>
<path d="M16.6777 1.06445L23.0648 7.09671L16.6777 13.129" stroke="#E9D1AD" stroke-width="2"/>
<path d="M28.0332 1.06445L34.4203 7.09671L28.0332 13.129" stroke="#E9D1AD" stroke-width="2"/>
<path d="M39.3877 1.06445L45.7748 7.09671L39.3877 13.129" stroke="#E9D1AD" stroke-width="2"/>
<path d="M1.06445 13.1289H50.7419" stroke="#E9D1AD" stroke-width="2"/>
<path d="M20.8168 24.707H25.2851M25.2851 24.707H29.7534M25.2851 24.707V32.5923M18.4512 21.29H32.6447V35.4836H18.4512V21.29Z" stroke="#E9D1AD"/>
<rect x="17.0332" y="19.8711" width="2.12903" height="2.12903" fill="#E9D1AD"/>
<rect x="17.0332" y="34.7744" width="2.12903" height="2.12903" fill="#E9D1AD"/>
<rect x="31.9355" y="19.8711" width="2.12903" height="2.12903" fill="#E9D1AD"/>
<rect x="31.9355" y="34.7744" width="2.12903" height="2.12903" fill="#E9D1AD"/>
</svg>
