<svg width="54" height="49" viewBox="0 0 54 49" fill="none" xmlns="http://www.w3.org/2000/svg">
<path d="M15.5406 9.44922H4C2.34315 9.44922 1 10.7924 1 12.4492V28.7921C1 30.4489 2.34315 31.7921 4 31.7921H5.66725C6.99333 31.7921 8.2651 32.3188 9.20278 33.2565L21.9742 46.0279C22.6368 46.6906 23.4812 47.2161 24.4136 47.1225C25.9879 46.9646 27.8846 45.9607 28.3079 42.7861C30.3176 43.259 34.3369 43.4954 35.7555 38.885C38.5927 38.885 41.5717 38.1757 42.1392 33.9199C44.1578 33.7277 46.411 33.1446 47.1825 30.6454C47.5737 29.3783 46.9321 28.0734 45.9944 27.1358L32.9183 14.0596C31.3815 12.5228 27.8823 9.44922 26.18 9.44922" stroke="#E9D1AD" stroke-width="2"/>
<path d="M28.3083 42.7875L15.541 30.0202M35.756 38.8864L22.9886 26.1191M42.1396 33.9213L30.0816 21.8633" stroke="#E9D1AD" stroke-width="2"/>
<path d="M28.3067 7.32183L17.5784 17.9345C16.6424 18.8605 15.3497 19.4848 14.0825 19.1271C11.5711 18.4181 10.9921 16.348 11.3647 14.5879C11.4915 13.9891 11.858 13.479 12.2818 13.0374L23.2103 1.64746H50.0005C51.6573 1.64746 53.0005 2.99061 53.0005 4.64746V20.2225C53.0005 22.891 50.8372 25.0542 48.1688 25.0542V25.0542C47.3413 25.0542 45.6153 25.338 45.3316 26.4728" stroke="#E9D1AD" stroke-width="2"/>
</svg>
