<svg width="42" height="46" viewBox="0 0 42 46" fill="none" xmlns="http://www.w3.org/2000/svg">
<rect x="0.65" y="0.65" width="21.7" height="44.7" stroke="#E9D1AD" stroke-width="1.3"/>
<rect x="22.65" y="11.65" width="18.7" height="33.7" stroke="#E9D1AD" stroke-width="1.3"/>
<rect x="3.35" y="3.35" width="4.3" height="4.3" stroke="#E9D1AD" stroke-width="0.7"/>
<rect x="3.35" y="17.35" width="4.3" height="4.3" stroke="#E9D1AD" stroke-width="0.7"/>
<rect x="3.35" y="10.35" width="4.3" height="4.3" stroke="#E9D1AD" stroke-width="0.7"/>
<rect x="3.35" y="24.35" width="4.3" height="4.3" stroke="#E9D1AD" stroke-width="0.7"/>
<rect x="9.35" y="3.35" width="4.3" height="4.3" stroke="#E9D1AD" stroke-width="0.7"/>
<rect x="9.35" y="17.35" width="4.3" height="4.3" stroke="#E9D1AD" stroke-width="0.7"/>
<rect x="9.35" y="10.35" width="4.3" height="4.3" stroke="#E9D1AD" stroke-width="0.7"/>
<rect x="9.35" y="24.35" width="4.3" height="4.3" stroke="#E9D1AD" stroke-width="0.7"/>
<rect x="15.35" y="3.35" width="4.3" height="4.3" stroke="#E9D1AD" stroke-width="0.7"/>
<rect x="26.35" y="15.35" width="4.3" height="4.3" stroke="#E9D1AD" stroke-width="0.7"/>
<rect x="26.35" y="22.35" width="4.3" height="4.3" stroke="#E9D1AD" stroke-width="0.7"/>
<rect x="33.35" y="15.35" width="4.3" height="4.3" stroke="#E9D1AD" stroke-width="0.7"/>
<rect x="33.35" y="22.35" width="4.3" height="4.3" stroke="#E9D1AD" stroke-width="0.7"/>
<rect x="15.35" y="17.35" width="4.3" height="4.3" stroke="#E9D1AD" stroke-width="0.7"/>
<rect x="15.35" y="10.35" width="4.3" height="4.3" stroke="#E9D1AD" stroke-width="0.7"/>
<rect x="15.35" y="24.35" width="4.3" height="4.3" stroke="#E9D1AD" stroke-width="0.7"/>
</svg>
