<svg width="70" height="70" viewBox="0 0 70 70" fill="none" xmlns="http://www.w3.org/2000/svg">
<path d="M32.3633 53.1503V29.1503C32.1014 27.9518 30.3418 26.5305 28.3633 27.1503C25.7938 27.9551 25.6653 30.7314 26.3633 32.1501C27.1013 33.6501 28.1969 33.6501 28.8637 33.6501H42.3637C43.6035 33.4463 44.8637 32.5328 44.8637 30.6501C44.8637 28.7675 43.3433 27.1504 41.6035 27.1503C39.6035 27.1501 38.8637 28.1504 38.3637 29.1503V53.1503" stroke="#E9D1AD" stroke-width="2"/>
<path d="M23 53H47M23 58H47" stroke="#E9D1AD" stroke-width="2"/>
<path d="M48.3094 46.2446L47.6752 45.4714L47.6403 45.5L47.6081 45.5317L48.3094 46.2446ZM21.951 46.4547L22.6829 45.7734L22.6317 45.7183L22.5728 45.6716L21.951 46.4547ZM23.0006 50.5013L22.0012 50.4654L23.0006 50.5013ZM23.005 50.7976L24.0038 50.8474L24.0071 50.7802L24.0015 50.7132L23.005 50.7976ZM46.994 50.7797L45.9988 50.6826L45.9914 50.7582L45.9955 50.8339L46.994 50.7797ZM47 50.5L47.9994 50.4642V50.4642L47 50.5ZM55 30C55 36.2344 52.1487 41.8019 47.6752 45.4714L48.9436 47.0177C53.8603 42.9847 57 36.8586 57 30H55ZM35 10C46.0457 10 55 18.9543 55 30H57C57 17.8497 47.1503 8 35 8V10ZM15 30C15 18.9543 23.9543 10 35 10V8C22.8497 8 13 17.8497 13 30H15ZM22.5728 45.6716C17.957 42.0062 15 36.3487 15 30H13C13 36.9846 16.256 43.2094 21.3291 47.2378L22.5728 45.6716ZM23.9999 50.5371C24.0388 49.4536 24.045 48.5867 23.8655 47.8368C23.6704 47.0211 23.2764 46.411 22.6829 45.7734L21.219 47.1361C21.6593 47.609 21.8295 47.9222 21.9204 48.3022C22.0271 48.7479 22.0412 49.349 22.0012 50.4654L23.9999 50.5371ZM24.0015 50.7132C23.9988 50.6816 23.9968 50.6252 23.9999 50.5371L22.0012 50.4654C21.9961 50.6081 21.9973 50.7485 22.0086 50.882L24.0015 50.7132ZM24 51C24 50.9487 24.0013 50.8978 24.0038 50.8474L22.0063 50.7478C22.0021 50.8314 22 50.9155 22 51H24ZM24 59V51H22V59H24ZM27 62C25.3431 62 24 60.6569 24 59H22C22 61.7614 24.2386 64 27 64V62ZM43 62H27V64H43V62ZM46 59C46 60.6569 44.6569 62 43 62V64C45.7614 64 48 61.7614 48 59H46ZM46 51V59H48V51H46ZM45.9955 50.8339C45.9985 50.8888 46 50.9441 46 51H48C48 50.908 47.9975 50.8165 47.9926 50.7255L45.9955 50.8339ZM46.0006 50.5358C46.0034 50.6121 46.0011 50.659 45.9988 50.6826L47.9893 50.8768C48.0024 50.7424 48.0043 50.6034 47.9994 50.4642L46.0006 50.5358ZM47.6081 45.5317C46.912 46.2164 46.4141 46.8286 46.1683 47.6811C45.9423 48.465 45.959 49.3732 46.0006 50.5358L47.9994 50.4642C47.9551 49.2286 47.9687 48.656 48.09 48.2352C48.1916 47.883 48.3914 47.5666 49.0106 46.9575L47.6081 45.5317Z" fill="#E9D1AD"/>
<path d="M35.0173 69C29.8173 69 28.8506 65 29.0173 63H41.0176C41.1842 65 40.2173 69 35.0173 69Z" stroke="#E9D1AD" stroke-width="2"/>
<path d="M58 17.9658L61.4834 15.9996" stroke="#E9D1AD" stroke-width="2"/>
<path d="M35 1L35 5" stroke="#E9D1AD" stroke-width="2"/>
<path d="M9 15L12.3108 17.2447" stroke="#E9D1AD" stroke-width="2"/>
<path d="M57 44L60.4823 45.9682" stroke="#E9D1AD" stroke-width="2"/>
<path d="M12.4824 43L9.00016 44.9682" stroke="#E9D1AD" stroke-width="2"/>
<path d="M53 1L48 9" stroke="#E9D1AD" stroke-width="2"/>
<path d="M18 1L23 9" stroke="#E9D1AD" stroke-width="2"/>
<path d="M0 30L9.43398 30" stroke="#E9D1AD" stroke-width="2"/>
<path d="M60 30L69.434 30" stroke="#E9D1AD" stroke-width="2"/>
</svg>
