<svg width="48" height="48" viewBox="0 0 48 48" fill="none" xmlns="http://www.w3.org/2000/svg">
<path d="M13.7455 3.05469L9.38184 7.41832L9.8182 8.72741H10.9091L13.7455 5.23651V3.05469Z" fill="#E9D1AD"/>
<path d="M34.2545 44.9453L38.6182 40.5817L38.1818 39.2726L37.0909 39.2726L34.2545 42.7635L34.2545 44.9453Z" fill="#E9D1AD"/>
<path d="M34.0361 3.05531L38.3998 7.41895L39.7089 6.98258L39.7089 5.89167L36.218 3.05531L34.0361 3.05531Z" fill="#E9D1AD"/>
<path d="M13.9639 44.9447L9.60023 40.5811L8.29114 41.0174L8.29114 42.1083L11.782 44.9447L13.9639 44.9447Z" fill="#E9D1AD"/>
<path d="M3.05433 13.9639L7.41797 9.60023L6.98161 8.29114L5.8907 8.29114L3.05433 11.782L3.05433 13.9639Z" fill="#E9D1AD"/>
<path d="M44.9457 34.0361L40.582 38.3998L41.0184 39.7089L42.1093 39.7089L44.9457 36.218L44.9457 34.0361Z" fill="#E9D1AD"/>
<path d="M44.9453 13.7455L40.5817 9.38184L39.2726 9.8182L39.2726 10.9091L42.7635 13.7455L44.9453 13.7455Z" fill="#E9D1AD"/>
<path d="M3.05469 34.2545L7.41832 38.6182L8.72741 38.1818L8.72741 37.0909L5.23651 34.2545L3.05469 34.2545Z" fill="#E9D1AD"/>
<path d="M17.0175 21.5997L8.72656 9.81788L9.38111 8.72697L21.3811 17.2361H26.3993L38.3993 8.50879L39.4902 9.5997L30.5447 21.5997V26.1815L39.4902 38.3997L38.3993 39.4906L26.3993 30.9815H21.3811L9.59929 39.4906L8.72656 38.1815L17.0175 26.1815V21.5997Z" fill="#E9D1AD"/>
<circle cx="8.50909" cy="8.50909" r="7.75909" stroke="#E9D1AD" stroke-width="1.5"/>
<circle cx="8.50909" cy="39.4905" r="7.75909" stroke="#E9D1AD" stroke-width="1.5"/>
<circle cx="39.4905" cy="8.50909" r="7.75909" stroke="#E9D1AD" stroke-width="1.5"/>
<circle cx="39.4905" cy="39.4905" r="7.75909" stroke="#E9D1AD" stroke-width="1.5"/>
<circle cx="8.50872" cy="8.50872" r="1" stroke="#E9D1AD" stroke-width="1.05455"/>
<circle cx="8.50872" cy="39.4911" r="1" stroke="#E9D1AD" stroke-width="1.05455"/>
<circle cx="39.4911" cy="8.50872" r="1" stroke="#E9D1AD" stroke-width="1.05455"/>
<circle cx="39.4911" cy="39.4911" r="1" stroke="#E9D1AD" stroke-width="1.05455"/>
</svg>
